{"title":"DJ POL465 - YEARMIX 2010 plus (VIDEOMIX)","uid":11651883,"size":3791087763,"categoryP":"video","categoryS":"music_videos","magnet":"?xt=urn:btih:baf7d68cd5236820927e1cf3df2515c41b21070a&amp;dn=DJ+POL465+-+YEARMIX+2010+plus+%28VIDEOMIX%29&amp;tr=udp%3A%2F%2Ftracker.openbittorrent.com%3A80&amp;tr=udp%3A%2F%2Fopen.demonii.com%3A1337&amp;tr=udp%3A%2F%2Ftracker.coppersurfer.tk%3A6969&amp;tr=udp%3A%2F%2Fexodus.desync.com%3A6969","seeders":2,"leechers":1,"uploader":"megalight","files":-1,"time":1417884663,"description":"DJ POL465 - YEARMIX 2010 plus (VIDEOMIX)\n\nComplete name : DJ POL465 - YEARMIX 2010 plus.mp4\nFormat : MPEG-4\nFile size : 3.53 GiB\nDuration : 1h 27mn\nOverall bit rate mode : Variable\nOverall bit rate : 5 762 Kbps\nGenre : Music\n\n\nVideo\nID : 2\nFormat : AVC\nFormat/Info : Advanced Video Codec\nFormat profile : &lt;a class=&quot;__cf_email__&quot; href=&quot;/cdn-cgi/l/email-protection&quot; data-cfemail=&quot;20624153454c494e45606c140e11&quot;&gt;[email&amp;#160;protected]&lt;/a&gt;&lt;script cf-hash='f9e31' type=&quot;text/javascript&quot;&gt;\n/* &lt;![CDATA[ */!function(){try{var t=&quot;currentScript&quot;in document?document.currentScript:function(){for(var t=document.getElementsByTagName(&quot;script&quot;),e=t.length;e--;)if(t[e].getAttribute(&quot;cf-hash&quot;))return t[e]}();if(t&amp;&amp;t.previousSibling){var e,r,n,i,c=t.previousSibling,a=c.getAttribute(&quot;data-cfemail&quot;);if(a){for(e=&quot;&quot;,r=parseInt(a.substr(0,2),16),n=2;a.length-n;n+=2)i=parseInt(a.substr(n,2),16)^r,e+=String.fromCharCode(i);e=document.createTextNode(e),c.parentNode.replaceChild(e,c)}}}catch(u){}}();/* ]]&gt; */&lt;/script&gt;\nFormat settings, CABAC : No\nFormat settings, ReFrames : 3 frames\nCodec ID : avc1\nCodec ID/Info : Advanced Video Coding\nDuration : 1h 27mn\nBit rate mode : Constant\nBit rate : 5 580 Kbps / 5 580 Kbps\nWidth : 1 440 pixels\nHeight : 812 pixels\nDisplay aspect ratio : 16:9image\nFrame rate : 25.000 fps\nStandard : Component\nColor space : YUV\nChroma subsampling : 4:2:0\nBit depth : 8 bits\nScan type : Progressive\nBits/(Pixel*Frame) : 0.191\nStream size : 3.33 GiB (94%)\n\n\nAudio\nID : 1\nFormat : AAC\nFormat/Info : Advanced Audio Codec\nFormat profile : LC\nCodec ID : 40\nDuration : 1h 27mn\nBit rate mode : Variable\nBit rate : 320 Kbps\nMaximum bit rate : 325 Kbps\nChannel(s) : 2 channels\nChannel positions : Front: L R\nSampling rate : 48.0 KHz\nCompression mode : Lossy\nStream size : 201 MiB (6%)","torrent":{"xt":"urn:btih:baf7d68cd5236820927e1cf3df2515c41b21070a","amp;dn":"DJ+POL465+-+YEARMIX+2010+plus+%28VIDEOMIX%29","amp;tr":["udp%3A%2F%2Ftracker.openbittorrent.com%3A80","udp%3A%2F%2Fopen.demonii.com%3A1337","udp%3A%2F%2Ftracker.coppersurfer.tk%3A6969","udp%3A%2F%2Fexodus.desync.com%3A6969"],"infoHash":"baf7d68cd5236820927e1cf3df2515c41b21070a","infoHashBuffer":{"type":"Buffer","data":[186,247,214,140,213,35,104,32,146,126,28,243,223,37,21,196,27,33,7,10]},"announce":[],"urlList":[]}}